<mxfile host="65bd71144e">
    <diagram id="JahMyFIi_0oegEvlvQ_E" name="Page-1">
        <mxGraphModel dx="922" dy="448" grid="1" gridSize="10" guides="1" tooltips="1" connect="1" arrows="1" fold="1" page="1" pageScale="1" pageWidth="850" pageHeight="1100" math="0" shadow="0">
            <root>
                <mxCell id="0"/>
                <mxCell id="1" parent="0"/>
                <mxCell id="25" value="Hardware" style="rounded=0;whiteSpace=wrap;html=1;fillColor=#6a00ff;fontColor=#ffffff;strokeColor=#000000;" vertex="1" parent="1">
                    <mxGeometry x="55" y="300" width="240" height="60" as="geometry"/>
                </mxCell>
                <mxCell id="54" style="edgeStyle=none;html=1;exitX=0.5;exitY=1;exitDx=0;exitDy=0;entryX=0.5;entryY=0;entryDx=0;entryDy=0;endArrow=open;endFill=0;startArrow=open;startFill=0;strokeColor=#000000;endSize=9;startSize=9;" edge="1" parent="1" source="26" target="25">
                    <mxGeometry relative="1" as="geometry"/>
                </mxCell>
                <mxCell id="26" value="VMM/Hypervisor" style="rounded=0;whiteSpace=wrap;html=1;fillColor=#d80073;fontColor=#ffffff;strokeColor=#000000;" vertex="1" parent="1">
                    <mxGeometry x="55" y="230" width="240" height="40" as="geometry"/>
                </mxCell>
                <mxCell id="27" value="Guest OS" style="rounded=0;whiteSpace=wrap;html=1;fillColor=#a20025;fontColor=#ffffff;strokeColor=#000000;" vertex="1" parent="1">
                    <mxGeometry x="55" y="190" width="80" height="40" as="geometry"/>
                </mxCell>
                <mxCell id="28" value="Guest OS" style="rounded=0;whiteSpace=wrap;html=1;fillColor=#a20025;fontColor=#ffffff;strokeColor=#000000;" vertex="1" parent="1">
                    <mxGeometry x="135" y="190" width="80" height="40" as="geometry"/>
                </mxCell>
                <mxCell id="29" value="Guest OS" style="rounded=0;whiteSpace=wrap;html=1;fillColor=#a20025;fontColor=#ffffff;strokeColor=#000000;" vertex="1" parent="1">
                    <mxGeometry x="215" y="190" width="80" height="40" as="geometry"/>
                </mxCell>
                <mxCell id="30" value="Hardware" style="rounded=0;whiteSpace=wrap;html=1;fillColor=#6a00ff;fontColor=#ffffff;strokeColor=#000000;" vertex="1" parent="1">
                    <mxGeometry x="410" y="300" width="240" height="60" as="geometry"/>
                </mxCell>
                <mxCell id="55" style="edgeStyle=none;html=1;exitX=0.5;exitY=1;exitDx=0;exitDy=0;entryX=0.5;entryY=0;entryDx=0;entryDy=0;endArrow=open;endFill=0;startArrow=open;startFill=0;strokeColor=#000000;endSize=9;startSize=9;" edge="1" parent="1" source="31" target="30">
                    <mxGeometry relative="1" as="geometry"/>
                </mxCell>
                <mxCell id="31" value="Host OS" style="rounded=0;whiteSpace=wrap;html=1;fillColor=#a20025;fontColor=#ffffff;strokeColor=#000000;" vertex="1" parent="1">
                    <mxGeometry x="410" y="230" width="240" height="40" as="geometry"/>
                </mxCell>
                <mxCell id="32" value="VMM/Hypervisor" style="rounded=0;whiteSpace=wrap;html=1;fillColor=#d80073;fontColor=#ffffff;strokeColor=#000000;" vertex="1" parent="1">
                    <mxGeometry x="410" y="190" width="160" height="40" as="geometry"/>
                </mxCell>
                <mxCell id="33" value="Guest OS" style="rounded=0;whiteSpace=wrap;html=1;fillColor=#a20025;fontColor=#ffffff;strokeColor=#000000;" vertex="1" parent="1">
                    <mxGeometry x="410" y="150" width="80" height="40" as="geometry"/>
                </mxCell>
                <mxCell id="34" value="Guest OS" style="rounded=0;whiteSpace=wrap;html=1;fillColor=#a20025;fontColor=#ffffff;strokeColor=#000000;" vertex="1" parent="1">
                    <mxGeometry x="490" y="150" width="80" height="40" as="geometry"/>
                </mxCell>
                <mxCell id="36" value="Process" style="rounded=0;whiteSpace=wrap;html=1;fillColor=#0050ef;fontColor=#ffffff;strokeColor=#000000;rotation=-90;" vertex="1" parent="1">
                    <mxGeometry x="30" y="125" width="90" height="40" as="geometry"/>
                </mxCell>
                <mxCell id="37" value="Process" style="rounded=0;whiteSpace=wrap;html=1;fillColor=#0050ef;fontColor=#ffffff;strokeColor=#000000;rotation=-90;" vertex="1" parent="1">
                    <mxGeometry x="60" y="115" width="110" height="40" as="geometry"/>
                </mxCell>
                <mxCell id="38" value="Process" style="rounded=0;whiteSpace=wrap;html=1;fillColor=#0050ef;fontColor=#ffffff;strokeColor=#000000;rotation=-90;" vertex="1" parent="1">
                    <mxGeometry x="120" y="135" width="70" height="40" as="geometry"/>
                </mxCell>
                <mxCell id="39" value="Process" style="rounded=0;whiteSpace=wrap;html=1;fillColor=#0050ef;fontColor=#ffffff;strokeColor=#000000;rotation=-90;" vertex="1" parent="1">
                    <mxGeometry x="145" y="120" width="100" height="40" as="geometry"/>
                </mxCell>
                <mxCell id="40" value="Process" style="rounded=0;whiteSpace=wrap;html=1;fillColor=#0050ef;fontColor=#ffffff;strokeColor=#000000;rotation=-90;" vertex="1" parent="1">
                    <mxGeometry x="190" y="125" width="90" height="40" as="geometry"/>
                </mxCell>
                <mxCell id="41" value="Process" style="rounded=0;whiteSpace=wrap;html=1;fillColor=#0050ef;fontColor=#ffffff;strokeColor=#000000;rotation=-90;" vertex="1" parent="1">
                    <mxGeometry x="225" y="120" width="100" height="40" as="geometry"/>
                </mxCell>
                <mxCell id="42" value="Process" style="rounded=0;whiteSpace=wrap;html=1;fillColor=#0050ef;fontColor=#ffffff;strokeColor=#000000;rotation=-90;" vertex="1" parent="1">
                    <mxGeometry x="385" y="85" width="90" height="40" as="geometry"/>
                </mxCell>
                <mxCell id="43" value="Process" style="rounded=0;whiteSpace=wrap;html=1;fillColor=#0050ef;fontColor=#ffffff;strokeColor=#000000;rotation=-90;" vertex="1" parent="1">
                    <mxGeometry x="460" y="80" width="100" height="40" as="geometry"/>
                </mxCell>
                <mxCell id="44" value="Process" style="rounded=0;whiteSpace=wrap;html=1;fillColor=#0050ef;fontColor=#ffffff;strokeColor=#000000;rotation=-90;" vertex="1" parent="1">
                    <mxGeometry x="430" y="90" width="80" height="40" as="geometry"/>
                </mxCell>
                <mxCell id="45" value="Process" style="rounded=0;whiteSpace=wrap;html=1;fillColor=#0050ef;fontColor=#ffffff;strokeColor=#000000;rotation=-90;" vertex="1" parent="1">
                    <mxGeometry x="520" y="100" width="60" height="40" as="geometry"/>
                </mxCell>
                <mxCell id="46" value="Process" style="rounded=0;whiteSpace=wrap;html=1;fillColor=#0050ef;fontColor=#ffffff;strokeColor=#000000;rotation=-90;" vertex="1" parent="1">
                    <mxGeometry x="520" y="140" width="140" height="40" as="geometry"/>
                </mxCell>
                <mxCell id="47" value="Process" style="rounded=0;whiteSpace=wrap;html=1;fillColor=#0050ef;fontColor=#ffffff;strokeColor=#000000;rotation=-90;" vertex="1" parent="1">
                    <mxGeometry x="580" y="160" width="100" height="40" as="geometry"/>
                </mxCell>
                <mxCell id="48" value="" style="shape=curlyBracket;whiteSpace=wrap;html=1;rounded=1;flipH=1;strokeColor=#000000;" vertex="1" parent="1">
                    <mxGeometry x="670" y="230" width="20" height="40" as="geometry"/>
                </mxCell>
                <mxCell id="49" value="" style="shape=curlyBracket;whiteSpace=wrap;html=1;rounded=1;flipH=1;strokeColor=#000000;" vertex="1" parent="1">
                    <mxGeometry x="670" y="50" width="20" height="180" as="geometry"/>
                </mxCell>
                <mxCell id="50" value="Kernel Space" style="text;html=1;strokeColor=none;fillColor=none;align=center;verticalAlign=middle;whiteSpace=wrap;rounded=0;" vertex="1" parent="1">
                    <mxGeometry x="690" y="240" width="40" height="20" as="geometry"/>
                </mxCell>
                <mxCell id="52" value="User&lt;br&gt;Space" style="text;html=1;strokeColor=none;fillColor=none;align=center;verticalAlign=middle;whiteSpace=wrap;rounded=0;" vertex="1" parent="1">
                    <mxGeometry x="690" y="130" width="40" height="20" as="geometry"/>
                </mxCell>
                <mxCell id="53" value="" style="endArrow=none;dashed=1;html=1;dashPattern=1 3;strokeWidth=2;entryX=0.25;entryY=1;entryDx=0;entryDy=0;strokeColor=#FF0000;" edge="1" parent="1" target="49">
                    <mxGeometry width="50" height="50" relative="1" as="geometry">
                        <mxPoint x="10" y="230" as="sourcePoint"/>
                        <mxPoint x="310" y="380" as="targetPoint"/>
                    </mxGeometry>
                </mxCell>
                <mxCell id="57" style="edgeStyle=orthogonalEdgeStyle;html=1;exitX=0.5;exitY=1;exitDx=0;exitDy=0;entryX=1;entryY=0.5;entryDx=0;entryDy=0;startArrow=none;startFill=0;endArrow=open;endFill=0;startSize=9;endSize=9;strokeColor=#000000;" edge="1" parent="1" source="56" target="46">
                    <mxGeometry relative="1" as="geometry"/>
                </mxCell>
                <mxCell id="58" style="edgeStyle=orthogonalEdgeStyle;html=1;exitX=0.5;exitY=1;exitDx=0;exitDy=0;entryX=1;entryY=0.5;entryDx=0;entryDy=0;startArrow=none;startFill=0;endArrow=open;endFill=0;startSize=9;endSize=9;strokeColor=#000000;" edge="1" parent="1" source="56" target="47">
                    <mxGeometry relative="1" as="geometry"/>
                </mxCell>
                <mxCell id="56" value="Other processes" style="text;html=1;strokeColor=none;fillColor=none;align=center;verticalAlign=middle;whiteSpace=wrap;rounded=0;" vertex="1" parent="1">
                    <mxGeometry x="600" y="10" width="40" height="40" as="geometry"/>
                </mxCell>
                <mxCell id="60" style="edgeStyle=orthogonalEdgeStyle;html=1;exitX=1;exitY=0.5;exitDx=0;exitDy=0;entryX=0;entryY=0.5;entryDx=0;entryDy=0;startArrow=none;startFill=0;endArrow=open;endFill=0;startSize=9;endSize=9;strokeColor=#000000;" edge="1" parent="1" source="59" target="32">
                    <mxGeometry relative="1" as="geometry"/>
                </mxCell>
                <mxCell id="59" value="Hypervisor runs as a process" style="text;html=1;strokeColor=none;fillColor=none;align=center;verticalAlign=middle;whiteSpace=wrap;rounded=0;" vertex="1" parent="1">
                    <mxGeometry x="295" y="195" width="90" height="30" as="geometry"/>
                </mxCell>
                <mxCell id="61" value="Type 1" style="text;html=1;strokeColor=none;fillColor=none;align=center;verticalAlign=middle;whiteSpace=wrap;rounded=0;fontSize=23;" vertex="1" parent="1">
                    <mxGeometry x="60" y="370" width="230" height="20" as="geometry"/>
                </mxCell>
                <mxCell id="62" value="Type 2" style="text;html=1;strokeColor=none;fillColor=none;align=center;verticalAlign=middle;whiteSpace=wrap;rounded=0;fontSize=23;" vertex="1" parent="1">
                    <mxGeometry x="415" y="370" width="230" height="20" as="geometry"/>
                </mxCell>
                <mxCell id="63" value="Virtual&lt;br&gt;Kernel Mode" style="text;html=1;strokeColor=none;fillColor=none;align=right;verticalAlign=middle;whiteSpace=wrap;rounded=0;" vertex="1" parent="1">
                    <mxGeometry x="330" y="155" width="80" height="30" as="geometry"/>
                </mxCell>
                <mxCell id="64" value="Virtual&lt;br&gt;User Mode" style="text;html=1;strokeColor=none;fillColor=none;align=right;verticalAlign=middle;whiteSpace=wrap;rounded=0;" vertex="1" parent="1">
                    <mxGeometry x="340" y="105" width="70" height="30" as="geometry"/>
                </mxCell>
            </root>
        </mxGraphModel>
    </diagram>
</mxfile>